<mxfile host="Electron" modified="2024-01-07T15:35:16.361Z" agent="Mozilla/5.0 (Windows NT 10.0; Win64; x64) AppleWebKit/537.36 (KHTML, like Gecko) draw.io/22.1.16 Chrome/120.0.6099.109 Electron/28.1.0 Safari/537.36" etag="AEb8mCWcEFESqaiSllK5" version="22.1.16" type="device">
  <diagram id="C5RBs43oDa-KdzZeNtuy" name="Page-1">
    <mxGraphModel dx="1036" dy="606" grid="1" gridSize="10" guides="1" tooltips="1" connect="1" arrows="1" fold="1" page="1" pageScale="1" pageWidth="827" pageHeight="1169" math="0" shadow="0">
      <root>
        <mxCell id="WIyWlLk6GJQsqaUBKTNV-0" />
        <mxCell id="WIyWlLk6GJQsqaUBKTNV-1" parent="WIyWlLk6GJQsqaUBKTNV-0" />
        <mxCell id="q68nCGGydoX_3qnlbrFk-0" value="Actor" style="shape=umlActor;verticalLabelPosition=bottom;verticalAlign=top;html=1;outlineConnect=0;" vertex="1" parent="WIyWlLk6GJQsqaUBKTNV-1">
          <mxGeometry x="70" y="220" width="30" height="60" as="geometry" />
        </mxCell>
        <mxCell id="q68nCGGydoX_3qnlbrFk-1" value="寢室簽到" style="ellipse;whiteSpace=wrap;html=1;" vertex="1" parent="WIyWlLk6GJQsqaUBKTNV-1">
          <mxGeometry x="320" y="60" width="120" height="80" as="geometry" />
        </mxCell>
        <mxCell id="q68nCGGydoX_3qnlbrFk-2" value="寢室簽離" style="ellipse;whiteSpace=wrap;html=1;" vertex="1" parent="WIyWlLk6GJQsqaUBKTNV-1">
          <mxGeometry x="240" y="140" width="120" height="80" as="geometry" />
        </mxCell>
        <mxCell id="q68nCGGydoX_3qnlbrFk-3" value="電費查詢" style="ellipse;whiteSpace=wrap;html=1;" vertex="1" parent="WIyWlLk6GJQsqaUBKTNV-1">
          <mxGeometry x="560" y="130" width="120" height="80" as="geometry" />
        </mxCell>
        <mxCell id="q68nCGGydoX_3qnlbrFk-4" value="電費繳交" style="ellipse;whiteSpace=wrap;html=1;" vertex="1" parent="WIyWlLk6GJQsqaUBKTNV-1">
          <mxGeometry x="570" y="290" width="120" height="80" as="geometry" />
        </mxCell>
        <mxCell id="q68nCGGydoX_3qnlbrFk-5" value="電費管理" style="ellipse;whiteSpace=wrap;html=1;" vertex="1" parent="WIyWlLk6GJQsqaUBKTNV-1">
          <mxGeometry x="414" y="210" width="120" height="80" as="geometry" />
        </mxCell>
        <mxCell id="q68nCGGydoX_3qnlbrFk-6" value="訂水管理" style="ellipse;whiteSpace=wrap;html=1;" vertex="1" parent="WIyWlLk6GJQsqaUBKTNV-1">
          <mxGeometry x="160" y="390" width="120" height="80" as="geometry" />
        </mxCell>
        <mxCell id="q68nCGGydoX_3qnlbrFk-7" value="衛生成績檢查" style="ellipse;whiteSpace=wrap;html=1;" vertex="1" parent="WIyWlLk6GJQsqaUBKTNV-1">
          <mxGeometry x="240" y="280" width="120" height="80" as="geometry" />
        </mxCell>
        <mxCell id="q68nCGGydoX_3qnlbrFk-8" value="入住登記" style="ellipse;whiteSpace=wrap;html=1;" vertex="1" parent="WIyWlLk6GJQsqaUBKTNV-1">
          <mxGeometry x="190" y="20" width="120" height="80" as="geometry" />
        </mxCell>
        <mxCell id="q68nCGGydoX_3qnlbrFk-10" style="edgeStyle=orthogonalEdgeStyle;rounded=0;orthogonalLoop=1;jettySize=auto;html=1;" edge="1" parent="WIyWlLk6GJQsqaUBKTNV-1" source="q68nCGGydoX_3qnlbrFk-0">
          <mxGeometry relative="1" as="geometry">
            <mxPoint x="410" y="250" as="targetPoint" />
          </mxGeometry>
        </mxCell>
        <mxCell id="q68nCGGydoX_3qnlbrFk-11" value="" style="endArrow=classic;html=1;rounded=0;entryX=0;entryY=0.5;entryDx=0;entryDy=0;" edge="1" parent="WIyWlLk6GJQsqaUBKTNV-1" target="q68nCGGydoX_3qnlbrFk-8">
          <mxGeometry width="50" height="50" relative="1" as="geometry">
            <mxPoint x="100" y="220" as="sourcePoint" />
            <mxPoint x="110" y="170" as="targetPoint" />
          </mxGeometry>
        </mxCell>
        <mxCell id="q68nCGGydoX_3qnlbrFk-12" value="" style="endArrow=classic;html=1;rounded=0;entryX=-0.02;entryY=0.597;entryDx=0;entryDy=0;entryPerimeter=0;" edge="1" parent="WIyWlLk6GJQsqaUBKTNV-1" target="q68nCGGydoX_3qnlbrFk-1">
          <mxGeometry width="50" height="50" relative="1" as="geometry">
            <mxPoint x="110" y="230" as="sourcePoint" />
            <mxPoint x="200" y="70" as="targetPoint" />
          </mxGeometry>
        </mxCell>
        <mxCell id="q68nCGGydoX_3qnlbrFk-13" value="" style="endArrow=classic;html=1;rounded=0;entryX=0.007;entryY=0.708;entryDx=0;entryDy=0;entryPerimeter=0;" edge="1" parent="WIyWlLk6GJQsqaUBKTNV-1" target="q68nCGGydoX_3qnlbrFk-2">
          <mxGeometry width="50" height="50" relative="1" as="geometry">
            <mxPoint x="120" y="240" as="sourcePoint" />
            <mxPoint x="328" y="118" as="targetPoint" />
          </mxGeometry>
        </mxCell>
        <mxCell id="q68nCGGydoX_3qnlbrFk-14" value="" style="endArrow=classic;html=1;rounded=0;entryX=0;entryY=0.5;entryDx=0;entryDy=0;" edge="1" parent="WIyWlLk6GJQsqaUBKTNV-1" target="q68nCGGydoX_3qnlbrFk-7">
          <mxGeometry width="50" height="50" relative="1" as="geometry">
            <mxPoint x="110" y="271.5" as="sourcePoint" />
            <mxPoint x="231" y="228.5" as="targetPoint" />
          </mxGeometry>
        </mxCell>
        <mxCell id="q68nCGGydoX_3qnlbrFk-15" value="" style="endArrow=classic;html=1;rounded=0;entryX=0.253;entryY=0.072;entryDx=0;entryDy=0;entryPerimeter=0;" edge="1" parent="WIyWlLk6GJQsqaUBKTNV-1" target="q68nCGGydoX_3qnlbrFk-6">
          <mxGeometry width="50" height="50" relative="1" as="geometry">
            <mxPoint x="110" y="290" as="sourcePoint" />
            <mxPoint x="250" y="330" as="targetPoint" />
          </mxGeometry>
        </mxCell>
        <mxCell id="q68nCGGydoX_3qnlbrFk-17" value="" style="endArrow=classic;html=1;rounded=0;entryX=0.007;entryY=0.708;entryDx=0;entryDy=0;entryPerimeter=0;exitX=0.577;exitY=-0.037;exitDx=0;exitDy=0;exitPerimeter=0;" edge="1" parent="WIyWlLk6GJQsqaUBKTNV-1" source="q68nCGGydoX_3qnlbrFk-5">
          <mxGeometry width="50" height="50" relative="1" as="geometry">
            <mxPoint x="440" y="221.5" as="sourcePoint" />
            <mxPoint x="561" y="178.5" as="targetPoint" />
          </mxGeometry>
        </mxCell>
        <mxCell id="q68nCGGydoX_3qnlbrFk-19" value="" style="endArrow=classic;html=1;rounded=0;exitX=0.577;exitY=-0.037;exitDx=0;exitDy=0;exitPerimeter=0;" edge="1" parent="WIyWlLk6GJQsqaUBKTNV-1">
          <mxGeometry width="50" height="50" relative="1" as="geometry">
            <mxPoint x="490" y="290" as="sourcePoint" />
            <mxPoint x="568" y="323" as="targetPoint" />
          </mxGeometry>
        </mxCell>
        <mxCell id="q68nCGGydoX_3qnlbrFk-20" value="這是一個學生角色，主要能進行的操作有:&lt;br&gt;1.寢室入住登記&lt;br&gt;2.寢室簽到&lt;br&gt;3.寢室簽離&lt;br&gt;4.寢室衛生成績檢查&lt;br&gt;5.訂水管理&lt;br&gt;6.電費管理" style="whiteSpace=wrap;html=1;aspect=fixed;" vertex="1" parent="WIyWlLk6GJQsqaUBKTNV-1">
          <mxGeometry x="440" width="140" height="140" as="geometry" />
        </mxCell>
      </root>
    </mxGraphModel>
  </diagram>
</mxfile>
